<svg width="133" height="40" viewBox="0 0 133 40" fill="none" xmlns="http://www.w3.org/2000/svg">
<path d="M7.02196 12.5293C7.02196 13.4487 7.88713 14.0716 12.3436 14.0716C16.5042 14.0716 17.1246 13.8008 17.1246 13.0966C17.1246 12.2856 16.5042 12.1773 12.0733 12.0433C3.53877 11.777 0.273369 10.3641 0.273369 5.95397C0.273369 1.78605 4.35137 0 11.8074 0C19.1808 0 23.34 1.78605 23.34 6.62956H16.315C16.315 5.62896 14.6943 5.41227 11.2637 5.41227C7.96824 5.41227 7.29233 5.57479 7.29233 6.30605C7.29233 7.03732 7.96824 7.00873 12.0733 7.17124C19.5293 7.47217 24.148 7.98224 24.148 12.9356C24.148 18.1568 19.8267 19.4839 12.0733 19.4839C4.31982 19.4839 0 18.1568 0 12.5293H7.02196Z" fill="white"/>
<path d="M84.1127 9.20024L94.9979 19.2123H85.2737L79.2236 13.2042L76.3067 15.6116V19.2108H69.2832V0.268555H76.3067V7.68355L85.0034 0.268555H94.9979L84.1127 9.20024Z" fill="white"/>
<path d="M23.5803 21.0596V40.0003H16.5568V33.5062H7.02196V40.0003H0V21.0596H7.02196V27.5537H16.5568V21.0596H23.5803Z" fill="white"/>
<path d="M24.3359 21.0596H32.4394L37.4651 28.0954L42.4879 21.0596H50.5913L40.9784 33.777V40.0003H33.9534V33.777L24.3359 21.0596Z" fill="white"/>
<path d="M73.4451 28.3106C73.4451 32.5326 70.4996 35.563 66.2053 35.563H58.3722V40.0003H51.3428V21.0596H66.2128C70.4996 21.0596 73.4451 24.09 73.4451 28.3106ZM66.4216 28.3106C66.4216 27.012 65.5564 27.012 64.855 27.012H58.3722V29.6106H64.861C65.5564 29.6106 66.4216 29.6106 66.4216 28.3106Z" fill="white"/>
<path d="M82.0332 26.4707V28.2297H94.9987V32.8294H82.0332V34.5884H94.9987V40.0052H75.0098V21.0645H94.9987V26.4812L82.0332 26.4707Z" fill="white"/>
<path d="M32.7373 5.68363V7.44258H45.7028V12.0423H32.7373V13.8013H41.1096V19.2181H25.7139V0.275879H52.0504V5.69267L32.7373 5.68363Z" fill="#FF0192"/>
<path d="M60.4254 5.68363V7.44258H47.4599V12.0423H60.4254V13.8013H41.1108V19.2181H67.4473V0.275879H52.0516V5.69267L60.4254 5.68363Z" fill="white"/>
<path d="M108.654 8L108.038 6.042H105.31L104.705 8H103.231L105.805 0.322H107.609L110.161 8H108.654ZM106.696 1.642H106.641L105.662 4.799H107.686L106.696 1.642ZM112.431 0.322V5.041C112.431 5.64233 112.545 6.09333 112.772 6.394C113.007 6.69467 113.399 6.845 113.949 6.845C114.499 6.845 114.888 6.69467 115.115 6.394C115.35 6.09333 115.467 5.64233 115.467 5.041V0.322H116.897V4.854C116.897 5.41867 116.842 5.90633 116.732 6.317C116.63 6.72767 116.461 7.06867 116.226 7.34C115.992 7.61133 115.684 7.813 115.302 7.945C114.928 8.06967 114.474 8.132 113.938 8.132C113.396 8.132 112.937 8.06967 112.563 7.945C112.197 7.813 111.896 7.61133 111.661 7.34C111.427 7.06867 111.258 6.72767 111.155 6.317C111.053 5.90633 111.001 5.41867 111.001 4.854V0.322H112.431ZM120.103 8H118.651V0.322H122.116C122.468 0.322 122.783 0.377 123.062 0.487C123.341 0.597 123.575 0.758333 123.766 0.970999C123.964 1.17633 124.114 1.42567 124.217 1.719C124.327 2.01233 124.382 2.33867 124.382 2.698C124.382 3.226 124.261 3.68067 124.019 4.062C123.784 4.44333 123.429 4.71467 122.952 4.876L124.525 8H122.908L121.478 5.041H120.103V8ZM121.973 3.82C122.252 3.82 122.472 3.74667 122.633 3.6C122.794 3.446 122.875 3.22967 122.875 2.951V2.445C122.875 2.16633 122.794 1.95367 122.633 1.807C122.472 1.66033 122.252 1.587 121.973 1.587H120.103V3.82H121.973ZM130.708 8L130.092 6.042H127.364L126.759 8H125.285L127.859 0.322H129.663L132.215 8H130.708ZM128.75 1.642H128.695L127.716 4.799H129.74L128.75 1.642ZM103.902 19V11.322H108.962V12.609H105.354V14.468H108.544V15.755H105.354V17.713H108.962V19H103.902ZM112.247 19L109.739 11.322H111.224L112.401 15.062L113.083 17.614H113.116L113.787 15.062L114.964 11.322H116.405L113.897 19H112.247ZM123.277 13.489H123.233L122.639 14.71L121.066 17.614L119.493 14.71L118.899 13.489H118.855V19H117.48V11.322H119.119L121.088 15.073H121.132L123.079 11.322H124.652V19H123.277V13.489Z" fill="#A09FA6"/>
</svg>
